<svg width="138" height="137" viewBox="0 0 138 137" fill="none" xmlns="http://www.w3.org/2000/svg">
<path d="M109.379 60.6259C115.698 68.099 114.384 77.2441 114.384 85.3086C114.384 107.523 84.4295 113.745 69 113.745C53.5705 113.745 23.6158 107.523 23.6158 85.3086C23.6158 77.2441 22.3021 68.099 28.6206 60.6259M109.379 60.6259C108.27 59.3179 106.934 58.0667 105.307 56.8724L109.379 60.6259ZM109.379 60.6259C113.36 62.9179 114.379 54.3415 114.384 51.5377V40.8798C114.384 31.6381 108.032 28.4362 102.583 28.4362C97.1405 28.4362 86.2437 37.3253 82.6153 37.3253C78.2588 37.3253 77.4171 36.4324 69 36.4324C60.5829 36.4324 59.7412 37.3253 55.3848 37.3253C51.7563 37.3253 40.8595 28.4362 35.4169 28.4362C29.9742 28.4362 23.6158 31.6381 23.6158 40.8798V51.5434C23.6272 54.3415 24.6395 62.9179 28.6206 60.6259M28.6206 60.6259C29.7296 59.3179 31.0661 58.0667 32.6927 56.8724L28.6206 60.6259Z" fill="#BFECE6"/>
<path d="M109.379 60.6259C115.698 68.099 114.384 77.2441 114.384 85.3086C114.384 107.523 84.4295 113.745 69 113.745C53.5705 113.745 23.6158 107.523 23.6158 85.3086C23.6158 77.2441 22.3021 68.099 28.6206 60.6259M109.379 60.6259C108.27 59.3179 106.934 58.0667 105.307 56.8724M109.379 60.6259C113.36 62.9179 114.378 54.3415 114.384 51.5377V40.8798C114.384 31.6381 108.032 28.4362 102.583 28.4362C97.1405 28.4362 86.2437 37.3253 82.6153 37.3253C78.2588 37.3253 77.4171 36.4324 69 36.4324C60.5829 36.4324 59.7412 37.3253 55.3848 37.3253C51.7563 37.3253 40.8595 28.4362 35.4169 28.4362C29.9742 28.4362 23.6158 31.6381 23.6158 40.8798V51.5434C23.6272 54.3415 24.6395 62.9179 28.6206 60.6259M28.6206 60.6259C29.7296 59.3179 31.0661 58.0667 32.6927 56.8724" stroke="black" stroke-width="5.64802" stroke-linecap="round"/>
<path d="M73.6976 90.9958C73.6976 91.9797 71.6445 92.7759 69.108 92.7759C66.5772 92.7759 64.5241 91.9797 64.5241 90.9958C64.5241 90.0119 66.5772 89.2213 69.108 89.2213C71.6388 89.2213 73.6976 90.0176 73.6976 90.9958ZM88.9053 77.3123C88.9053 79.7635 87.6712 81.754 86.1527 81.754C84.6342 81.754 83.4001 79.7635 83.4001 77.3123C83.4001 74.8611 84.6342 72.8705 86.1527 72.8705C87.6712 72.8705 88.9053 74.8668 88.9053 77.3123ZM54.7819 77.3123C54.7819 79.7635 53.5477 81.754 52.0292 81.754C50.5107 81.754 49.2766 79.7635 49.2766 77.3123C49.2766 74.8611 50.5107 72.8705 52.0292 72.8705C53.5477 72.8705 54.7819 74.8668 54.7819 77.3123Z" fill="#BFECE6" stroke="black" stroke-width="5.64802"/>
<path d="M125.872 87.9759C123.125 86.1958 111.199 81.7541 106.61 81.7541L125.872 87.9759ZM116.699 102.194C113.946 100.414 107.525 95.9722 102.936 95.9722L116.699 102.194ZM12.1276 87.9759C14.8802 86.1958 26.8006 81.7541 31.3903 81.7541L12.1276 87.9759ZM21.3011 102.194C24.0537 100.414 30.4746 95.9722 35.0642 95.9722L21.3011 102.194Z" fill="#BFECE6"/>
<path d="M125.872 87.9759C123.125 86.1958 111.199 81.7541 106.61 81.7541M116.699 102.194C113.946 100.414 107.525 95.9722 102.936 95.9722M12.1276 87.9759C14.8802 86.1958 26.8006 81.7541 31.3903 81.7541M21.3011 102.194C24.0537 100.414 30.4746 95.9722 35.0642 95.9722" stroke="black" stroke-width="5.64802" stroke-linecap="round"/>
</svg>
