<svg width="137" height="137" viewBox="0 0 137 137" fill="none" xmlns="http://www.w3.org/2000/svg">
<path d="M109.133 60.6259C115.451 68.099 114.137 77.2441 114.137 85.3086C114.137 107.523 84.1826 113.745 68.7531 113.745C53.3236 113.745 23.3689 107.523 23.3689 85.3086C23.3689 77.2441 22.0552 68.099 28.3737 60.6259M109.133 60.6259C108.024 59.3179 106.687 58.0667 105.06 56.8724L109.133 60.6259ZM109.133 60.6259C113.114 62.9179 114.132 54.3415 114.137 51.5377V40.8798C114.137 31.6381 107.785 28.4362 102.336 28.4362C96.8936 28.4362 85.9968 37.3253 82.3684 37.3253C78.012 37.3253 77.1702 36.4324 68.7531 36.4324C60.336 36.4324 59.4943 37.3253 55.1379 37.3253C51.5094 37.3253 40.6127 28.4362 35.17 28.4362C29.7273 28.4362 23.3689 31.6381 23.3689 40.8798V51.5434C23.3803 54.3415 24.3926 62.9179 28.3737 60.6259M28.3737 60.6259C29.4827 59.3179 30.8192 58.0667 32.4458 56.8724L28.3737 60.6259Z" fill="#FFB347"/>
<path d="M109.133 60.6259C115.451 68.099 114.137 77.2441 114.137 85.3086C114.137 107.523 84.1826 113.745 68.7531 113.745C53.3236 113.745 23.3689 107.523 23.3689 85.3086C23.3689 77.2441 22.0552 68.099 28.3737 60.6259M109.133 60.6259C108.024 59.3179 106.687 58.0667 105.06 56.8724M109.133 60.6259C113.114 62.9179 114.132 54.3415 114.137 51.5377V40.8798C114.137 31.6381 107.785 28.4362 102.336 28.4362C96.8936 28.4362 85.9968 37.3253 82.3684 37.3253C78.012 37.3253 77.1702 36.4324 68.7531 36.4324C60.336 36.4324 59.4943 37.3253 55.1379 37.3253C51.5094 37.3253 40.6127 28.4362 35.17 28.4362C29.7273 28.4362 23.3689 31.6381 23.3689 40.8798V51.5434C23.3803 54.3415 24.3926 62.9179 28.3737 60.6259M28.3737 60.6259C29.4827 59.3179 30.8192 58.0667 32.4458 56.8724" stroke="black" stroke-width="5.64802" stroke-linecap="round"/>
<path d="M73.4507 90.9958C73.4507 91.9797 71.3976 92.7759 68.8611 92.7759C66.3303 92.7759 64.2772 91.9797 64.2772 90.9958C64.2772 90.0119 66.3303 89.2213 68.8611 89.2213C71.392 89.2213 73.4507 90.0176 73.4507 90.9958ZM88.6584 77.3123C88.6584 79.7635 87.4243 81.754 85.9058 81.754C84.3873 81.754 83.1532 79.7635 83.1532 77.3123C83.1532 74.8611 84.3873 72.8705 85.9058 72.8705C87.4243 72.8705 88.6584 74.8668 88.6584 77.3123ZM54.535 77.3123C54.535 79.7635 53.3008 81.754 51.7823 81.754C50.2639 81.754 49.0297 79.7635 49.0297 77.3123C49.0297 74.8611 50.2639 72.8705 51.7823 72.8705C53.3008 72.8705 54.535 74.8668 54.535 77.3123Z" fill="#FFB347" stroke="black" stroke-width="5.64802"/>
<path d="M125.626 87.9759C122.879 86.1958 110.952 81.7541 106.363 81.7541L125.626 87.9759ZM116.452 102.194C113.699 100.414 107.278 95.9722 102.689 95.9722L116.452 102.194ZM11.8807 87.9759C14.6333 86.1958 26.5538 81.7541 31.1434 81.7541L11.8807 87.9759ZM21.0542 102.194C23.8068 100.414 30.2277 95.9722 34.8173 95.9722L21.0542 102.194Z" fill="#FFB347"/>
<path d="M125.626 87.9759C122.879 86.1958 110.952 81.7541 106.363 81.7541M116.452 102.194C113.699 100.414 107.278 95.9722 102.689 95.9722M11.8807 87.9759C14.6333 86.1958 26.5538 81.7541 31.1434 81.7541M21.0542 102.194C23.8068 100.414 30.2277 95.9722 34.8173 95.9722" stroke="black" stroke-width="5.64802" stroke-linecap="round"/>
</svg>
