<svg width="137" height="138" viewBox="0 0 137 138" fill="none" xmlns="http://www.w3.org/2000/svg">
<path d="M108.626 61.2413C114.945 68.7143 113.631 77.8594 113.631 85.9239C113.631 108.138 83.6764 114.36 68.2469 114.36C52.8174 114.36 22.8627 108.138 22.8627 85.9239C22.8627 77.8594 21.549 68.7143 27.8675 61.2413M108.626 61.2413C107.517 59.9332 106.181 58.682 104.554 57.4877L108.626 61.2413ZM108.626 61.2413C112.607 63.5333 113.625 54.9569 113.631 52.1531V41.4952C113.631 32.2534 107.278 29.0515 101.83 29.0515C96.3874 29.0515 85.4906 37.9407 81.8622 37.9407C77.5057 37.9407 76.664 37.0478 68.2469 37.0478C59.8298 37.0478 58.9881 37.9407 54.6316 37.9407C51.0032 37.9407 40.1064 29.0515 34.6637 29.0515C29.2211 29.0515 22.8627 32.2534 22.8627 41.4952V52.1588C22.8741 54.9569 23.8864 63.5333 27.8675 61.2413M27.8675 61.2413C28.9765 59.9332 30.313 58.682 31.9396 57.4877L27.8675 61.2413Z" fill="#ECB9FE"/>
<path d="M108.626 61.2413C114.945 68.7143 113.631 77.8594 113.631 85.9239C113.631 108.138 83.6764 114.36 68.2469 114.36C52.8174 114.36 22.8627 108.138 22.8627 85.9239C22.8627 77.8594 21.549 68.7143 27.8675 61.2413M108.626 61.2413C107.517 59.9332 106.181 58.682 104.554 57.4877M108.626 61.2413C112.607 63.5333 113.625 54.9569 113.631 52.1531V41.4952C113.631 32.2534 107.278 29.0515 101.83 29.0515C96.3874 29.0515 85.4906 37.9407 81.8622 37.9407C77.5057 37.9407 76.664 37.0478 68.2469 37.0478C59.8298 37.0478 58.9881 37.9407 54.6316 37.9407C51.0032 37.9407 40.1064 29.0515 34.6637 29.0515C29.2211 29.0515 22.8627 32.2534 22.8627 41.4952V52.1588C22.8741 54.9569 23.8864 63.5333 27.8675 61.2413M27.8675 61.2413C28.9765 59.9332 30.313 58.682 31.9396 57.4877" stroke="black" stroke-width="5.64802" stroke-linecap="round"/>
<path d="M72.9445 91.6111C72.9445 92.595 70.8914 93.3912 68.3549 93.3912C65.8241 93.3912 63.771 92.595 63.771 91.6111C63.771 90.6272 65.8241 89.8367 68.3549 89.8367C70.8857 89.8367 72.9445 90.6329 72.9445 91.6111ZM88.1522 77.9276C88.1522 80.3788 86.9181 82.3693 85.3996 82.3693C83.8811 82.3693 82.6469 80.3788 82.6469 77.9276C82.6469 75.4764 83.8811 73.4859 85.3996 73.4859C86.9181 73.4859 88.1522 75.4821 88.1522 77.9276ZM54.0287 77.9276C54.0287 80.3788 52.7946 82.3693 51.2761 82.3693C49.7576 82.3693 48.5235 80.3788 48.5235 77.9276C48.5235 75.4764 49.7576 73.4859 51.2761 73.4859C52.7946 73.4859 54.0287 75.4821 54.0287 77.9276Z" fill="#ECB9FE" stroke="black" stroke-width="5.64802"/>
<path d="M125.119 88.5913C122.372 86.8112 110.446 82.3694 105.857 82.3694L125.119 88.5913ZM115.946 102.809C113.193 101.029 106.772 96.5875 102.183 96.5875L115.946 102.809ZM11.3745 88.5913C14.1271 86.8112 26.0476 82.3694 30.6372 82.3694L11.3745 88.5913ZM20.548 102.809C23.3006 101.029 29.7215 96.5875 34.3111 96.5875L20.548 102.809Z" fill="#ECB9FE"/>
<path d="M125.119 88.5913C122.372 86.8112 110.446 82.3694 105.857 82.3694M115.946 102.809C113.193 101.029 106.772 96.5875 102.183 96.5875M11.3745 88.5913C14.1271 86.8112 26.0476 82.3694 30.6372 82.3694M20.548 102.809C23.3006 101.029 29.7215 96.5875 34.3111 96.5875" stroke="black" stroke-width="5.64802" stroke-linecap="round"/>
</svg>
