<svg width="138" height="137" viewBox="0 0 138 137" fill="none" xmlns="http://www.w3.org/2000/svg">
<path d="M109.256 60.6259C115.574 68.099 114.261 77.2441 114.261 85.3086C114.261 107.523 84.306 113.745 68.8765 113.745C53.4471 113.745 23.4924 107.523 23.4924 85.3086C23.4924 77.2441 22.1786 68.099 28.4971 60.6259M109.256 60.6259C108.147 59.3179 106.81 58.0667 105.184 56.8724L109.256 60.6259ZM109.256 60.6259C113.237 62.9179 114.255 54.3415 114.261 51.5377V40.8798C114.261 31.6381 107.908 28.4362 102.46 28.4362C97.017 28.4362 86.1203 37.3253 82.4918 37.3253C78.1354 37.3253 77.2937 36.4324 68.8765 36.4324C60.4594 36.4324 59.6177 37.3253 55.2613 37.3253C51.6328 37.3253 40.7361 28.4362 35.2934 28.4362C29.8507 28.4362 23.4924 31.6381 23.4924 40.8798V51.5434C23.5037 54.3415 24.5161 62.9179 28.4971 60.6259M28.4971 60.6259C29.6061 59.3179 30.9426 58.0667 32.5692 56.8724L28.4971 60.6259Z" fill="#ABA0FE"/>
<path d="M109.256 60.6259C115.574 68.099 114.261 77.2441 114.261 85.3086C114.261 107.523 84.306 113.745 68.8765 113.745C53.4471 113.745 23.4924 107.523 23.4924 85.3086C23.4924 77.2441 22.1786 68.099 28.4971 60.6259M109.256 60.6259C108.147 59.3179 106.81 58.0667 105.184 56.8724M109.256 60.6259C113.237 62.9179 114.255 54.3415 114.261 51.5377V40.8798C114.261 31.6381 107.908 28.4362 102.46 28.4362C97.017 28.4362 86.1202 37.3253 82.4918 37.3253C78.1354 37.3253 77.2937 36.4324 68.8765 36.4324C60.4594 36.4324 59.6177 37.3253 55.2613 37.3253C51.6328 37.3253 40.7361 28.4362 35.2934 28.4362C29.8507 28.4362 23.4924 31.6381 23.4924 40.8798V51.5434C23.5037 54.3415 24.5161 62.9179 28.4971 60.6259M28.4971 60.6259C29.6061 59.3179 30.9426 58.0667 32.5692 56.8724" stroke="black" stroke-width="5.64802" stroke-linecap="round"/>
<path d="M73.5742 90.9958C73.5742 91.9797 71.5211 92.7759 68.9846 92.7759C66.4538 92.7759 64.4007 91.9797 64.4007 90.9958C64.4007 90.0119 66.4538 89.2213 68.9846 89.2213C71.5154 89.2213 73.5742 90.0176 73.5742 90.9958ZM88.7819 77.3123C88.7819 79.7635 87.5478 81.754 86.0293 81.754C84.5108 81.754 83.2766 79.7635 83.2766 77.3123C83.2766 74.8611 84.5108 72.8705 86.0293 72.8705C87.5478 72.8705 88.7819 74.8668 88.7819 77.3123ZM54.6584 77.3123C54.6584 79.7635 53.4243 81.754 51.9058 81.754C50.3873 81.754 49.1532 79.7635 49.1532 77.3123C49.1532 74.8611 50.3873 72.8705 51.9058 72.8705C53.4243 72.8705 54.6584 74.8668 54.6584 77.3123Z" fill="#ABA0FE" stroke="black" stroke-width="5.64802"/>
<path d="M125.749 87.9759C123.002 86.1958 111.076 81.7541 106.486 81.7541L125.749 87.9759ZM116.575 102.194C113.823 100.414 107.402 95.9722 102.812 95.9722L116.575 102.194ZM12.0042 87.9759C14.7568 86.1958 26.6772 81.7541 31.2668 81.7541L12.0042 87.9759ZM21.1777 102.194C23.9303 100.414 30.3512 95.9722 34.9408 95.9722L21.1777 102.194Z" fill="#ABA0FE"/>
<path d="M125.749 87.9759C123.002 86.1958 111.076 81.7541 106.486 81.7541M116.575 102.194C113.823 100.414 107.402 95.9722 102.812 95.9722M12.0042 87.9759C14.7568 86.1958 26.6772 81.7541 31.2668 81.7541M21.1777 102.194C23.9303 100.414 30.3512 95.9722 34.9408 95.9722" stroke="black" stroke-width="5.64802" stroke-linecap="round"/>
</svg>
