<svg width="138" height="137" viewBox="0 0 138 137" fill="none" xmlns="http://www.w3.org/2000/svg">
<path d="M109.503 60.6259C115.821 68.099 114.508 77.2441 114.508 85.3086C114.508 107.523 84.5529 113.745 69.1235 113.745C53.694 113.745 23.7393 107.523 23.7393 85.3086C23.7393 77.2441 22.4255 68.099 28.744 60.6259M109.503 60.6259C108.394 59.3179 107.057 58.0667 105.431 56.8724L109.503 60.6259ZM109.503 60.6259C113.484 62.9179 114.502 54.3415 114.508 51.5377V40.8798C114.508 31.6381 108.155 28.4362 102.707 28.4362C97.2639 28.4362 86.3672 37.3253 82.7387 37.3253C78.3823 37.3253 77.5406 36.4324 69.1235 36.4324C60.7063 36.4324 59.8646 37.3253 55.5082 37.3253C51.8797 37.3253 40.983 28.4362 35.5403 28.4362C30.0976 28.4362 23.7393 31.6381 23.7393 40.8798V51.5434C23.7506 54.3415 24.763 62.9179 28.744 60.6259M28.744 60.6259C29.8531 59.3179 31.1896 58.0667 32.8161 56.8724L28.744 60.6259Z" fill="#F5D0B6"/>
<path d="M109.503 60.6259C115.821 68.099 114.508 77.2441 114.508 85.3086C114.508 107.523 84.5529 113.745 69.1235 113.745C53.694 113.745 23.7393 107.523 23.7393 85.3086C23.7393 77.2441 22.4255 68.099 28.744 60.6259M109.503 60.6259C108.394 59.3179 107.057 58.0667 105.431 56.8724M109.503 60.6259C113.484 62.9179 114.502 54.3415 114.508 51.5377V40.8798C114.508 31.6381 108.155 28.4362 102.707 28.4362C97.2639 28.4362 86.3672 37.3253 82.7387 37.3253C78.3823 37.3253 77.5406 36.4324 69.1235 36.4324C60.7063 36.4324 59.8646 37.3253 55.5082 37.3253C51.8797 37.3253 40.983 28.4362 35.5403 28.4362C30.0976 28.4362 23.7393 31.6381 23.7393 40.8798V51.5434C23.7506 54.3415 24.763 62.9179 28.744 60.6259M28.744 60.6259C29.8531 59.3179 31.1896 58.0667 32.8161 56.8724" stroke="black" stroke-width="5.64802" stroke-linecap="round"/>
<path d="M73.8211 90.9958C73.8211 91.9797 71.768 92.7759 69.2315 92.7759C66.7006 92.7759 64.6475 91.9797 64.6475 90.9958C64.6475 90.0119 66.7006 89.2214 69.2315 89.2214C71.7623 89.2214 73.8211 90.0176 73.8211 90.9958ZM89.0287 77.3123C89.0287 79.7635 87.7946 81.754 86.2761 81.754C84.7576 81.754 83.5235 79.7635 83.5235 77.3123C83.5235 74.8611 84.7576 72.8705 86.2761 72.8705C87.7946 72.8705 89.0287 74.8668 89.0287 77.3123ZM54.9053 77.3123C54.9053 79.7635 53.6712 81.754 52.1527 81.754C50.6342 81.754 49.4001 79.7635 49.4001 77.3123C49.4001 74.8611 50.6342 72.8705 52.1527 72.8705C53.6712 72.8705 54.9053 74.8668 54.9053 77.3123Z" fill="#F5D0B6" stroke="black" stroke-width="5.64802"/>
<path d="M125.996 87.9759C123.249 86.1958 111.323 81.7541 106.733 81.7541L125.996 87.9759ZM116.822 102.194C114.07 100.414 107.649 95.9722 103.059 95.9722L116.822 102.194ZM12.251 87.9759C15.0037 86.1958 26.9241 81.7541 31.5137 81.7541L12.251 87.9759ZM21.4246 102.194C24.1772 100.414 30.5981 95.9722 35.1877 95.9722L21.4246 102.194Z" fill="#F5D0B6"/>
<path d="M125.996 87.9759C123.249 86.1958 111.323 81.7541 106.733 81.7541M116.822 102.194C114.07 100.414 107.649 95.9722 103.059 95.9722M12.251 87.9759C15.0037 86.1958 26.9241 81.7541 31.5137 81.7541M21.4246 102.194C24.1772 100.414 30.5981 95.9722 35.1877 95.9722" stroke="black" stroke-width="5.64802" stroke-linecap="round"/>
</svg>
