{
  "accessors": [
    {
      "bufferView": 1,
      "componentType": 5126,
      "count": 129,
      "max": [
        1.2014796733856201,
        2.1097400188446045,
        0.5404140949249268
      ],
      "min": [
        -1.2088472843170166,
        0.4993419945240021,
        -0.0859871506690979
      ],
      "type": "VEC3"
    },
    {
      "bufferView": 1,
      "byteOffset": 1548,
      "componentType": 5126,
      "count": 129,
      "max": [
        0.9863622784614563,
        0.9994535446166992,
        0.9830361604690552
      ],
      "min": [
        -0.905083417892456,
        -0.7099007964134216,
        -0.9981661438941956
      ],
      "type": "VEC3"
    },
    {
      "bufferView": 0,
      "componentType": 5125,
      "count": 750,
      "type": "SCALAR"
    },
    {
      "bufferView": 1,
      "byteOffset": 3096,
      "componentType": 5126,
      "count": 1039,
      "max": [
        0.9914429187774658,
        0.9752947092056274,
        1.0876147747039795
      ],
      "min": [
        -0.994098424911499,
        -0.9922696352005005,
        -0.9985003471374512
      ],
      "type": "VEC3"
    },
    {
      "bufferView": 1,
      "byteOffset": 15564,
      "componentType": 5126,
      "count": 1039,
      "max": [
        0.9966351985931396,
        0.9975489974021912,
        0.9988158941268921
      ],
      "min": [
        -0.9992101788520813,
        -0.9996201395988464,
        -0.9997557401657104
      ],
      "type": "VEC3"
    },
    {
      "bufferView": 0,
      "byteOffset": 3000,
      "componentType": 5125,
      "count": 6234,
      "type": "SCALAR"
    }
  ],
  "asset": {
    "extras": {
      "author": "neutralize (https://sketchfab.com/neutralize)",
      "license": "CC-BY-4.0 (http://creativecommons.org/licenses/by/4.0/)",
      "source": "https://sketchfab.com/3d-models/bunny-head-hair-pin-2f780469afa2420081b1e919037d52c7",
      "title": "Bunny Head Hair Pin"
    },
    "generator": "Sketchfab-12.66.0",
    "version": "2.0"
  },
  "bufferViews": [
    {
      "buffer": 0,
      "byteLength": 27936,
      "name": "floatBufferViews",
      "target": 34963
    },
    {
      "buffer": 0,
      "byteLength": 28032,
      "byteOffset": 27936,
      "byteStride": 12,
      "name": "floatBufferViews",
      "target": 34962
    }
  ],
  "buffers": [
    {
      "byteLength": 55968,
      "uri": "scene.bin"
    }
  ],
  "materials": [
    {
      "doubleSided": true,
      "name": "UMesh_bunny_Head",
      "pbrMetallicRoughness": {
        "baseColorFactor": [
          0.5,
          0.5,
          0.5,
          1.0
        ],
        "metallicFactor": 0.0
      }
    },
    {
      "doubleSided": true,
      "name": "UMesh_bear_head",
      "pbrMetallicRoughness": {
        "baseColorFactor": [
          0.5,
          0.5,
          0.5,
          1.0
        ],
        "metallicFactor": 0.0
      }
    }
  ],
  "meshes": [
    {
      "name": "UMesh_bunny_Head_UMesh_bunny_Head_0",
      "primitives": [
        {
          "attributes": {
            "NORMAL": 1,
            "POSITION": 0
          },
          "indices": 2,
          "material": 0,
          "mode": 4
        }
      ]
    },
    {
      "name": "UMesh_bear_head_UMesh_bear_head_0",
      "primitives": [
        {
          "attributes": {
            "NORMAL": 4,
            "POSITION": 3
          },
          "indices": 5,
          "material": 1,
          "mode": 4
        }
      ]
    }
  ],
  "nodes": [
    {
      "children": [
        1
      ],
      "matrix": [
        1.0,
        0.0,
        0.0,
        0.0,
        0.0,
        2.220446049250313e-16,
        -1.0,
        0.0,
        0.0,
        1.0,
        2.220446049250313e-16,
        0.0,
        0.0,
        0.0,
        0.0,
        1.0
      ],
      "name": "Sketchfab_model"
    },
    {
      "children": [
        2
      ],
      "matrix": [
        1.0,
        0.0,
        0.0,
        0.0,
        0.0,
        0.0,
        1.0,
        0.0,
        0.0,
        -1.0,
        0.0,
        0.0,
        0.0,
        0.0,
        0.0,
        1.0
      ],
      "name": "96057fe282db417081e7e72962ab0ecf.fbx"
    },
    {
      "children": [
        3,
        5
      ],
      "name": "RootNode"
    },
    {
      "children": [
        4
      ],
      "name": "UMesh_bunny_Head"
    },
    {
      "mesh": 0,
      "name": "UMesh_bunny_Head_UMesh_bunny_Head_0"
    },
    {
      "children": [
        6
      ],
      "name": "UMesh_bear_head"
    },
    {
      "mesh": 1,
      "name": "UMesh_bear_head_UMesh_bear_head_0"
    }
  ],
  "scene": 0,
  "scenes": [
    {
      "name": "Sketchfab_Scene",
      "nodes": [
        0
      ]
    }
  ]
}
