<svg width="69" height="119" viewBox="0 0 69 119" fill="none" xmlns="http://www.w3.org/2000/svg">
<path fill-rule="evenodd" clip-rule="evenodd" d="M2.61066 52.9446C0.939049 54.6167 -1.52588e-05 56.8843 -1.52588e-05 59.2487C-1.52588e-05 61.6131 0.939049 63.8806 2.61066 65.5528L53.0522 115.994C53.8748 116.846 54.8587 117.525 55.9466 117.993C57.0344 118.46 58.2045 118.706 59.3884 118.716C60.5724 118.726 61.7465 118.501 62.8423 118.053C63.9382 117.604 64.9337 116.942 65.7709 116.105C66.6081 115.268 67.2702 114.272 67.7186 113.176C68.1669 112.08 68.3925 110.906 68.3822 109.722C68.3719 108.538 68.126 107.368 67.6587 106.28C67.1913 105.193 66.5121 104.209 65.6604 103.386L21.5229 59.2487L65.6604 15.1112C67.2847 13.4295 68.1834 11.1771 68.1631 8.83918C68.1428 6.50126 67.205 4.26485 65.5518 2.61163C63.8986 0.958407 61.6622 0.020653 59.3242 0.000337074C56.9863 -0.0199788 54.7339 0.878771 53.0522 2.50301L2.61066 52.9446Z" fill="#CBCBCB"/>
</svg>
