<svg width="69" height="119" viewBox="0 0 69 119" fill="none" xmlns="http://www.w3.org/2000/svg">
<path fill-rule="evenodd" clip-rule="evenodd" d="M65.772 52.9446C67.4436 54.6167 68.3827 56.8843 68.3827 59.2487C68.3827 61.6131 67.4436 63.8806 65.772 65.5528L15.3304 115.994C14.5079 116.846 13.524 117.525 12.4361 117.993C11.3483 118.46 10.1782 118.706 8.99427 118.716C7.81032 118.726 6.63618 118.501 5.54036 118.053C4.44453 117.604 3.44896 116.942 2.61175 116.105C1.77454 115.268 1.11245 114.272 0.664113 113.176C0.215776 112.08 -0.00982946 110.906 0.000458737 109.722C0.0107469 108.538 0.256725 107.368 0.724038 106.28C1.19135 105.193 1.87064 104.209 2.72227 103.386L46.8598 59.2487L2.72227 15.1112C1.09803 13.4295 0.199281 11.1771 0.219596 8.83918C0.239912 6.50126 1.17767 4.26485 2.83089 2.61163C4.48411 0.958407 6.72053 0.020653 9.05845 0.000337074C11.3964 -0.0199788 13.6487 0.878771 15.3304 2.50301L65.772 52.9446Z" fill="#CBCBCB"/>
</svg>
