<svg width="670" height="407" viewBox="0 0 670 407" fill="none" xmlns="http://www.w3.org/2000/svg">
<g filter="url(#filter0_d_10_2)">
<path d="M35.8806 240.571C45.6337 353.204 141.851 339.438 188.741 318.475C191.242 323.481 203.933 335.746 234.693 344.757C265.452 353.767 292.523 344.131 302.214 338.186C307.84 357.897 337.85 361.652 372.548 361.652C400.307 361.652 427.878 332.868 438.193 318.475C445.383 327.236 465.389 346.446 487.896 353.204C516.03 361.652 622.001 363.529 634.192 254.65C643.945 167.547 562.958 140.511 523.533 127.937C514.212 124.965 491.675 119.379 487.896 110.104C464.966 53.8175 435.38 34.0762 392.242 25.6287C357.731 18.8707 309.993 68.6099 287.209 78.191C276.798 82.569 231.879 60.3573 188.741 70.6821C154.23 78.9419 157.636 133.514 139.038 138.262C99.7659 148.288 26.1276 127.937 35.8806 240.571Z" fill="url(#paint0_linear_10_2)"/>
</g>
<defs>
<filter id="filter0_d_10_2" x="0" y="0" width="670" height="406.652" filterUnits="userSpaceOnUse" color-interpolation-filters="sRGB">
<feFlood flood-opacity="0" result="BackgroundImageFix"/>
<feColorMatrix in="SourceAlpha" type="matrix" values="0 0 0 0 0 0 0 0 0 0 0 0 0 0 0 0 0 0 127 0" result="hardAlpha"/>
<feOffset dy="10"/>
<feGaussianBlur stdDeviation="17.5"/>
<feComposite in2="hardAlpha" operator="out"/>
<feColorMatrix type="matrix" values="0 0 0 0 0.286964 0 0 0 0 0.00265387 0 0 0 0 0.350789 0 0 0 0.25 0"/>
<feBlend mode="normal" in2="BackgroundImageFix" result="effect1_dropShadow_10_2"/>
<feBlend mode="normal" in="SourceGraphic" in2="effect1_dropShadow_10_2" result="shape"/>
</filter>
<linearGradient id="paint0_linear_10_2" x1="335" y1="145.019" x2="322.103" y2="562.351" gradientUnits="userSpaceOnUse">
<stop stop-color="#D9D9D9"/>
<stop offset="1" stop-color="#CC59F4"/>
</linearGradient>
</defs>
</svg>
