<svg width="155" height="132" viewBox="0 0 155 132" fill="none" xmlns="http://www.w3.org/2000/svg">
<path d="M7.04816 111.954C-2.03741 110.416 1.3988 114.575 4.2526 116.846C9.08658 119.642 21.2705 126.106 31.3346 129.601C43.9146 133.969 69.4241 129.251 89.8666 123.311C110.309 117.37 143.506 84.697 149.622 68.0984C154.514 54.8195 146.768 44.0449 142.283 40.3175C144.1 39.3391 143.04 32.455 142.283 29.1353C151.893 23.3694 155.737 5.89716 148.399 3.27632C142.528 1.17965 141.876 5.08178 142.283 7.29494C149.412 12.8861 142.458 21.2727 138.09 24.7672L122.016 25.8155C119.628 23.3112 112.196 18.1277 104.369 21.6222C94.5841 25.9903 88.6435 29.4847 75.8888 74.2137C63.1341 118.943 18.4051 113.876 7.04816 111.954Z" fill="#EA3224" stroke="#EA3224"/>
<path d="M139.045 23.0982L138.887 23.2354C138.886 23.2358 138.884 23.2362 138.883 23.2367C138.713 23.2965 138.39 23.3695 137.85 23.4038C136.774 23.472 134.988 23.378 132.188 22.869C128.362 22.1733 123.704 23.311 120.68 24.9592C119.203 25.7644 117.884 26.8143 117.392 28.0361C117.124 28.7007 117.095 29.4398 117.451 30.1446C117.772 30.7812 118.349 31.275 119.07 31.6601C121.192 33.4701 124.504 36.1602 127.662 38.4489C129.261 39.6079 130.837 40.6758 132.208 41.4758C132.893 41.8756 133.542 42.2171 134.126 42.4707C134.696 42.7179 135.269 42.9102 135.787 42.96C136.181 42.998 136.57 43.0468 136.966 43.0965C137.007 43.1017 137.049 43.1069 137.091 43.1122C137.523 43.1663 137.967 43.2203 138.398 43.2538C139.247 43.3195 140.163 43.3175 141.008 43.0155C141.902 42.6957 142.634 42.071 143.144 41.066C143.634 40.1006 143.91 38.8075 144.001 37.1264C144.145 34.459 143.877 32.6012 143.427 31.343C143.28 30.9321 143.104 30.5606 142.903 30.2405C145.238 28.855 148.072 26.571 150.18 23.5151C152.696 19.8692 154.197 15.0864 152.519 9.47538C151.513 6.11514 150.279 3.96655 148.917 2.78841C147.486 1.55146 145.916 1.40308 144.59 2.06357C143.354 2.67949 142.473 3.92424 142.076 5.21634C141.678 6.51063 141.705 8.0656 142.589 9.29015C143.744 10.8923 144.236 12.7402 144.256 14.4559C144.277 16.188 143.815 17.7053 143.164 18.6454C141.967 20.3752 139.923 22.3345 139.045 23.0982ZM138.992 23.1891C138.992 23.1893 138.987 23.1932 138.973 23.2C138.984 23.1922 138.991 23.1888 138.992 23.1891Z" fill="#608928" stroke="#608928" stroke-width="2"/>
<path d="M27.7965 119.835C26.1541 119.381 27.1122 118.918 27.7965 118.743C28.7429 120.476 37.0131 118.743 49.8552 113.545C70.3199 105.262 74.8406 90.7436 75.8015 88.9527C76.8567 86.9864 85.7826 63.88 86.1975 62.7443L86.1976 62.744C86.6139 61.6049 94.4975 40.0299 102.054 33.9588C108.099 29.1015 107.121 36.8417 107.121 36.8417C107.121 36.8417 94.6716 55.3622 91.876 62.7443C90.7508 65.7155 88.3816 74.0576 84.625 83.2305C79.1735 93.8492 69.8141 104.814 63.6583 110.094C52.6071 119.573 29.8495 120.403 27.7965 119.835Z" fill="#F0FFFD"/>
</svg>
