<svg width="275" height="271" viewBox="0 0 275 271" fill="none" xmlns="http://www.w3.org/2000/svg">
<rect x="132.165" y="135.907" width="7.77275" height="121.971" transform="rotate(46.1404 132.165 135.907)" fill="#3E3E3E"/>
<circle cx="180.358" cy="94.4844" r="66.6236" transform="rotate(46.1404 180.358 94.4844)" fill="#E9999B"/>
<path d="M194.707 114.324C192.602 116.287 190.35 118.085 187.949 119.719C185.307 120.976 182.575 122.025 179.754 122.866C176.822 123.262 173.869 123.427 170.897 123.359C167.959 122.82 165.075 122.049 162.247 121.044C159.601 119.59 157.081 117.925 154.687 116.05C152.611 113.793 150.722 111.37 149.021 108.781C147.746 105.92 146.702 102.956 145.891 99.8894C145.573 96.6907 145.51 93.465 145.702 90.2124C146.408 86.9868 147.367 83.8154 148.578 80.6983C150.272 77.7697 152.191 74.9739 154.334 72.3108C156.88 69.9844 159.598 67.8583 162.489 65.9325C165.659 64.4624 168.931 63.2423 172.304 62.2722C175.799 61.8345 179.313 61.6728 182.845 61.7872C186.326 62.4594 189.736 63.4067 193.078 64.6289C196.193 66.3791 199.156 68.3754 201.964 70.618C204.391 73.3043 206.593 76.1823 208.571 79.252C210.044 82.634 211.242 86.1321 212.165 89.7465C212.507 93.5063 212.55 97.2928 212.294 101.106C211.437 104.878 210.287 108.582 208.842 112.218C206.836 115.625 204.572 118.873 202.048 121.962C199.061 124.652 195.877 127.106 192.495 129.324C188.798 131.007 184.987 132.398 181.061 133.497C177.003 133.976 172.928 134.136 168.837 133.975C164.813 133.169 160.875 132.046 157.021 130.606C153.436 128.56 150.031 126.232 146.807 123.622C144.03 120.506 141.514 117.173 139.259 113.622C137.589 109.72 136.237 105.687 135.202 101.525C134.835 97.2045 134.812 92.8572 135.132 88.4833C136.14 84.1647 137.483 79.9281 139.162 75.7733C141.478 71.888 144.089 68.1876 146.994 64.6721C150.421 61.6186 154.071 58.8372 157.943 56.3278C162.168 54.4317 166.519 52.8696 170.997 51.6416C175.618 51.1206 180.254 50.9639 184.905 51.1714C189.471 52.1111 193.937 53.4096 198.303 55.067C202.358 57.4093 206.205 60.0689 209.844 63.046C212.972 66.5911 215.801 70.3795 218.334 74.4111C220.2 78.8345 221.707 83.401 222.855 88.1106C223.245 92.9924 223.249 97.9006 222.864 102.835C221.706 107.7 220.17 112.47 218.258 117.143C215.63 121.507 212.674 125.659 209.388 129.601C205.519 133.018 201.404 136.127 197.042 138.928C192.289 141.038 187.398 142.771 182.368 144.128C177.185 144.69 171.987 144.845 166.776 144.59C161.668 143.517 156.674 142.043 151.796 140.168C147.271 137.53 142.982 134.538 138.928 131.194C135.45 127.219 132.306 122.976 129.497 118.463C127.433 113.519 125.772 108.419 124.512 103.161C124.097 97.7184 124.114 92.2493 124.562 86.7541C125.871 81.3427 127.599 76.0407 129.746 70.8483C132.684 66.0062 135.987 61.4012 139.653 57.0333C143.963 53.2529 148.544 49.8162 153.397 46.7231C158.677 44.4009 164.108 42.4969 169.689 41.0111C175.436 40.4067 181.195 40.2548 186.965 40.5556C192.617 41.7628 198.138 43.4126 203.529 45.5051C208.523 48.4395 213.254 51.7625 217.724 55.474C221.552 59.8779 225.009 64.5766 228.096 69.5702C230.357 75.035 232.173 80.6698 233.544 86.4746C233.983 92.4786 233.947 98.5085 233.434 104.564C231.974 110.522 230.054 116.357 227.674 122.068C224.424 127.389 220.776 132.446 216.729 137.24C211.978 141.384 206.931 145.148 201.588 148.533C195.78 151.068 189.809 153.143 183.676 154.758C177.366 155.404 171.047 155.554 164.716 155.206C158.522 153.865 152.473 152.04 146.57 149.73C141.106 146.499 135.932 142.845 131.048 138.766C126.869 133.933 123.098 128.779 119.735 123.304C117.277 117.319 115.306 111.15 113.823 104.797C113.359 98.2323 113.416 91.6415 113.992 85.025C115.603 78.5206 117.715 72.1534 120.329 65.9233C123.891 60.1245 127.885 54.6149 132.313 49.3946C137.504 44.8872 143.017 40.7951 148.85 37.1183C155.186 34.3702 161.697 32.1242 168.382 30.3805C175.254 29.6928 182.135 29.5458 189.025 29.9398C195.762 31.4144 202.339 33.4156 208.754 35.9432C214.687 39.4697 220.304 43.456 225.603 47.902C230.132 53.1647 234.217 58.7738 237.858 64.7293C240.513 71.2355 242.638 77.9386 244.233 84.8387C244.721 91.9647 244.645 99.1163 244.005 106.293C242.243 113.344 239.938 120.244 237.09 126.993C233.218 133.27 228.878 139.232 224.069 144.879" stroke="#BF4440" stroke-width="5"/>
<path d="M174.308 94.2681C174.289 94.2844 174.266 94.2967 174.24 94.305C174.212 94.3032 174.184 94.2959 174.156 94.283C174.134 94.2597 174.117 94.2322 174.105 94.2007C174.105 94.1648 174.112 94.1292 174.126 94.0938C174.153 94.0645 174.186 94.0408 174.225 94.0226C174.27 94.0198 174.315 94.0257 174.361 94.0405C174.399 94.0727 174.432 94.1123 174.458 94.1592C174.465 94.2154 174.461 94.2726 174.446 94.3307C174.409 94.382 174.362 94.4257 174.305 94.4618C174.235 94.4751 174.163 94.4747 174.089 94.4606C174.021 94.4179 173.963 94.3623 173.913 94.294C173.891 94.2074 173.886 94.1171 173.898 94.0232C173.946 93.9354 174.011 93.8576 174.093 93.79C174.2 93.7552 174.312 93.7416 174.431 93.7491C174.545 93.8027 174.648 93.878 174.739 93.9752C174.791 94.1064 174.817 94.2468 174.817 94.3962C174.759 94.5433 174.672 94.6779 174.558 94.8C174.397 94.8755 174.223 94.9191 174.036 94.9309C173.847 94.8695 173.671 94.7718 173.509 94.6377C173.402 94.4425 173.333 94.2279 173.304 93.994C173.366 93.7522 173.475 93.5243 173.63 93.3105C173.866 93.1605 174.13 93.0578 174.421 93.0022C174.729 93.061 175.023 93.1793 175.304 93.3572C175.51 93.6416 175.66 93.964 175.752 94.3245C175.703 94.7154 175.578 95.0936 175.377 95.4592C175.037 95.7407 174.644 95.9538 174.2 96.0983C173.706 96.0673 173.222 95.9402 172.747 95.7171C172.368 95.3127 172.069 94.8375 171.853 94.2913C171.853 93.6695 171.974 93.0525 172.217 92.4403C172.694 91.9322 173.266 91.521 173.934 91.2067C174.713 91.1576 175.496 91.2608 176.283 91.5163C176.958 92.0744 177.519 92.7596 177.965 93.5719C178.088 94.5456 178.021 95.5356 177.762 96.542C177.116 97.432 176.301 98.1891 175.318 98.8132C174.107 99.0444 172.86 99.0377 171.578 98.7933C170.411 98.0529 169.397 97.0909 168.537 95.9074C168.152 94.4072 168.062 92.8436 168.267 91.2167C169.104 89.6952 170.23 88.3486 171.646 87.1769C173.496 86.5754 175.45 86.3393 177.506 86.4684C179.479 87.3968 181.256 88.7026 182.837 90.3856C183.737 92.6584 184.188 95.0889 184.188 97.6769C183.179 100.225 181.683 102.556 179.697 104.671C176.918 105.978 173.907 106.735 170.662 106.939C167.388 105.876 164.347 104.183 161.539 101.86C159.68 98.4794 158.494 94.7629 157.982 90.7107C159.057 86.5222 160.94 82.5759 163.63 78.8719C167.722 76.2744 172.289 74.4947 177.329 73.5327C182.665 74.5501 187.762 76.5995 192.618 79.6807C196.197 84.6064 198.789 90.191 200.393 96.4347C199.538 103.206 197.997 108.224 194.517 114.556" stroke="#BF4440" stroke-width="5"/>
</svg>
