<svg width="239" height="401" viewBox="0 0 239 401" fill="none" xmlns="http://www.w3.org/2000/svg">
<path d="M0.475098 0.535715H238.072V400.536H0.475098V0.535715Z" fill="#F98E89" fill-opacity="0.5"/>
<path d="M41.8923 302.979L46.4544 295.708L48.7354 294.635C48.4953 286.291 47.5348 286.291 54.1378 286.887C59.4201 287.364 57.8594 295.509 56.4188 299.523L50.2961 309.178L47.5348 302.979H41.8923Z" fill="#943015"/>
<path d="M224.259 100.879L216.079 103.483L213.645 102.829C208.439 109.354 209.172 109.974 204.516 105.254C200.792 101.478 207.244 96.2678 210.936 94.1347L221.847 90.7185L219.951 97.234L224.259 100.879Z" fill="#943015"/>
<path d="M192.643 362.218C188.897 367.272 193.723 371.158 196.605 372.469L207.169 364.006L192.643 362.218Z" fill="#961C12"/>
<path d="M102.244 347.547L103.565 352.315C103.565 352.315 102.808 351.782 107.406 355.892C109.808 358.037 112.249 354.7 111.248 352.315L108.007 348.739L102.244 347.547Z" fill="#F4C15A"/>
<path d="M45.2324 336.991L46.553 341.759C46.553 341.759 45.7964 341.226 50.3947 345.335C52.7958 347.481 55.2369 344.143 54.2364 341.759L50.995 338.183L45.2324 336.991Z" fill="#961C12"/>
<path d="M85.0427 89.322L87.6779 85.1346C87.6779 85.1346 87.7934 86.0529 87.734 79.8864C87.703 76.6665 83.5917 77.1099 82.5032 79.455L82.0429 84.2595L85.0427 89.322Z" fill="#961C12"/>
<path d="M202.894 277.012L195.931 281.541C195.931 282.654 197.324 285.451 202.894 287.74C209.857 290.601 217.06 286.786 214.179 285.833C211.298 284.879 211.538 287.74 210.818 278.919C210.241 271.862 205.295 274.707 202.894 277.012Z" fill="#561810"/>
<path d="M193.547 29.6662L194.17 36.1724C194.946 36.5777 197.404 36.6253 201.029 33.5738C205.561 29.7595 205.524 23.3463 203.809 25.0084C202.095 26.6706 204.178 27.5452 197.763 24.8346C192.631 22.6662 192.814 27.1521 193.547 29.6662Z" fill="#8C2417"/>
<path d="M116.184 130.928L111.352 124.172C110.24 124.221 107.507 125.736 105.466 131.402C102.915 138.484 107.044 145.512 107.869 142.591C108.695 139.671 105.847 140.037 114.628 138.928C121.652 138.042 118.592 133.226 116.184 130.928Z" fill="#561810"/>
<path d="M141.457 333.733C140.496 341.172 148.26 341.919 152.262 341.362C157.864 341.362 169.069 339.837 169.069 333.733C169.069 326.104 169.069 323.482 161.626 323.482C154.182 323.482 142.657 324.436 141.457 333.733Z" fill="#570F11"/>
<path d="M45.5736 67.1426C49.5863 71.3476 53.8213 67.0349 55.4372 64.3529C58.1686 60.9778 62.7123 53.4837 59.0357 50.5082C54.4398 46.7888 52.86 45.5103 49.2311 49.9943C45.6022 54.4783 40.5577 61.8864 45.5736 67.1426Z" fill="#570F11"/>
<path d="M77.7962 224.284H65.4968C64.3679 227.411 63.037 234.372 66.7446 237.204C70.4522 240.036 75.6572 233.901 77.7962 230.479V224.284Z" fill="#F5D66B"/>
<path d="M117.254 291.299C114.662 294.796 118.002 297.486 119.996 298.393L127.307 292.536L117.254 291.299Z" fill="#961C12"/>
<path d="M42.8391 136.278C40.247 139.776 43.5868 142.465 45.5807 143.372L52.8916 137.516L42.8391 136.278Z" fill="#F5D66B"/>
<path d="M74.5877 392.143C78.5406 390.319 76.9017 386.357 75.5882 384.604L66.3632 386.232L74.5877 392.143Z" fill="#961C12"/>
<path d="M197.584 205.038C195.284 203.648 195.876 201.563 196.459 200.694L202.959 195.729L207.209 200.694C204.959 202.721 199.884 206.428 197.584 205.038Z" fill="#450F05"/>
<path d="M92.1912 185.606C91.5042 187.202 90.1165 187.007 89.5085 186.71L85.7543 182.987L88.5581 179.826C90.0553 181.087 92.8781 184.01 92.1912 185.606Z" fill="#450F05"/>
<path d="M151.793 57.1175C149.106 57.1449 148.513 55.0603 148.552 54.0146L151.469 46.3735L157.695 48.3606C156.847 51.2682 154.481 57.0901 151.793 57.1175Z" fill="#8C2417"/>
<path d="M158.593 168.56C161.274 168.372 161.99 170.418 162.013 171.464L159.557 179.265L153.224 177.653C153.896 174.7 155.912 168.747 158.593 168.56Z" fill="#F5D66B"/>
<path d="M167.507 239.912C167.913 237.119 169.069 236.809 169.069 235.909L167.507 234.451L163.132 233.83C162.757 234.244 161.507 235.195 159.507 235.692C157.007 236.313 157.632 239.912 160.257 240.781C162.882 241.649 166.987 243.483 167.507 239.912Z" fill="#8C2417"/>
<path d="M150.956 97.4833C151.363 94.6907 152.519 94.3805 152.519 93.4806L150.956 92.0223L146.581 91.4017C146.206 91.8154 144.956 92.767 142.956 93.2634C140.456 93.884 141.081 97.4833 143.706 98.3521C146.331 99.2209 150.437 101.054 150.956 97.4833Z" fill="#F5D66B"/>
</svg>
