<svg width="190" height="373" viewBox="0 0 190 373" fill="none" xmlns="http://www.w3.org/2000/svg">
<path d="M2.89233 282.979L7.45436 275.708L9.73537 274.635C9.49527 266.291 8.53484 266.291 15.1378 266.887C20.4201 267.364 18.8594 275.509 17.4188 279.523L11.2961 289.178L8.53484 282.979H2.89233Z" fill="#943015"/>
<path d="M185.259 80.8786L177.079 83.4829L174.645 82.8285C169.439 89.3535 170.172 89.9739 165.516 85.2539C161.792 81.478 168.244 76.2678 171.936 74.1347L182.847 70.7185L180.951 77.234L185.259 80.8786Z" fill="#943015"/>
<path d="M153.643 342.218C149.897 347.272 154.723 351.158 157.605 352.469L168.169 344.006L153.643 342.218Z" fill="#961C12"/>
<path d="M63.2441 327.547L64.5647 332.315C64.5647 332.315 63.8081 331.782 68.4064 335.892C70.8075 338.037 73.2486 334.7 72.2481 332.315L69.0067 328.739L63.2441 327.547Z" fill="#F4C15A"/>
<path d="M6.23242 316.991L7.55301 321.759C7.55301 321.759 6.79642 321.226 11.3947 325.335C13.7958 327.481 16.2369 324.143 15.2364 321.759L11.995 318.183L6.23242 316.991Z" fill="#961C12"/>
<path d="M46.0427 69.322L48.6779 65.1346C48.6779 65.1346 48.7934 66.0529 48.734 59.8864C48.703 56.6665 44.5917 57.1099 43.5032 59.455L43.0429 64.2595L46.0427 69.322Z" fill="#961C12"/>
<path d="M163.894 257.012L156.931 261.541C156.931 262.654 158.324 265.451 163.894 267.74C170.857 270.601 178.06 266.786 175.179 265.833C172.298 264.879 172.538 267.74 171.818 258.919C171.241 251.862 166.295 254.707 163.894 257.012Z" fill="#561810"/>
<path d="M154.547 9.66616L155.17 16.1724C155.946 16.5777 158.404 16.6253 162.029 13.5738C166.561 9.75948 166.524 3.34626 164.809 5.00844C163.095 6.67063 165.178 7.54521 158.763 4.83464C153.631 2.66618 153.814 7.15213 154.547 9.66616Z" fill="#8C2417"/>
<path d="M77.1839 110.928L72.3516 104.172C71.2402 104.221 68.507 105.736 66.4662 111.402C63.9152 118.484 68.0435 125.512 68.8692 122.591C69.6948 119.671 66.8473 120.037 75.6279 118.928C82.6524 118.042 79.5921 113.226 77.1839 110.928Z" fill="#561810"/>
<path d="M102.457 313.733C101.496 321.172 109.26 321.919 113.262 321.362C118.864 321.362 130.069 319.837 130.069 313.733C130.069 306.104 130.069 303.482 122.626 303.482C115.182 303.482 103.657 304.436 102.457 313.733Z" fill="#570F11"/>
<path d="M6.57358 47.1426C10.5863 51.3476 14.8213 47.0349 16.4372 44.3529C19.1686 40.9778 23.7123 33.4837 20.0357 30.5082C15.4398 26.7888 13.86 25.5103 10.2311 29.9943C6.60218 34.4783 1.55769 41.8864 6.57358 47.1426Z" fill="#570F11"/>
<path d="M38.7962 204.284H26.4968C25.3679 207.411 24.037 214.372 27.7446 217.204C31.4522 220.036 36.6572 213.901 38.7962 210.479V204.284Z" fill="#F5D66B"/>
<path d="M78.2541 271.299C75.662 274.796 79.0018 277.486 80.9957 278.393L88.3066 272.536L78.2541 271.299Z" fill="#961C12"/>
<path d="M3.83909 116.278C1.24701 119.776 4.5868 122.465 6.58071 123.372L13.8916 117.516L3.83909 116.278Z" fill="#F5D66B"/>
<path d="M35.5877 372.143C39.5406 370.319 37.9017 366.357 36.5882 364.604L27.3632 366.232L35.5877 372.143Z" fill="#961C12"/>
<path d="M158.584 185.038C156.284 183.648 156.876 181.563 157.459 180.694L163.959 175.729L168.209 180.694C165.959 182.721 160.884 186.428 158.584 185.038Z" fill="#450F05"/>
<path d="M53.1912 165.606C52.5042 167.202 51.1165 167.007 50.5085 166.71L46.7543 162.987L49.5581 159.826C51.0553 161.087 53.8781 164.01 53.1912 165.606Z" fill="#450F05"/>
<path d="M112.793 37.1175C110.106 37.1449 109.513 35.0603 109.552 34.0146L112.469 26.3735L118.695 28.3606C117.847 31.2682 115.481 37.0901 112.793 37.1175Z" fill="#8C2417"/>
<path d="M119.593 148.56C122.274 148.372 122.99 150.418 123.013 151.464L120.557 159.265L114.224 157.653C114.896 154.7 116.912 148.747 119.593 148.56Z" fill="#F5D66B"/>
<path d="M128.507 219.912C128.913 217.119 130.069 216.809 130.069 215.909L128.507 214.451L124.132 213.83C123.757 214.244 122.507 215.195 120.507 215.692C118.007 216.313 118.632 219.912 121.257 220.781C123.882 221.649 127.987 223.483 128.507 219.912Z" fill="#8C2417"/>
<path d="M111.956 77.4833C112.363 74.6907 113.519 74.3805 113.519 73.4806L111.956 72.0223L107.581 71.4017C107.206 71.8154 105.956 72.767 103.956 73.2634C101.456 73.884 102.081 77.4833 104.706 78.3521C107.331 79.2209 111.437 81.0541 111.956 77.4833Z" fill="#F5D66B"/>
</svg>
