<svg width="202" height="368" viewBox="0 0 202 368" fill="none" xmlns="http://www.w3.org/2000/svg">
<path d="M21.6084 113.853C17.0367 115.407 16.029 117.074 14.4276 123.146C14.4276 123.146 13.9242 124.949 16.736 129.373C20.2508 134.904 24.1152 145.219 34.0124 140.631C43.9096 136.042 52.4908 123.046 47.7037 115.033C42.9165 107.02 31.4403 110.512 21.6084 113.853Z" fill="#4187BF" stroke="#85D7FB"/>
<path d="M126.502 248.107C126.457 243.278 125.189 241.799 119.924 238.378C119.924 238.378 118.369 237.335 113.287 238.621C106.934 240.228 95.9275 240.67 97.1873 251.506C98.4471 262.342 108.105 274.56 117.214 272.521C126.322 270.483 126.598 258.49 126.502 248.107Z" fill="#4187BF" stroke="#85D7FB"/>
<path d="M31.5486 301.765C34.1239 298.619 34.1014 296.979 32.542 291.926C32.542 291.926 32.099 290.414 28.1193 288.504C23.1446 286.117 15.7894 280.466 10.7596 288.152C5.72987 295.839 5.38505 308.948 12.3745 312.543C19.3639 316.137 26.0103 308.531 31.5486 301.765Z" fill="#4187BF" stroke="#85D7FB"/>
<path d="M60.6331 18.4572C60.1584 13.652 58.7633 12.2919 53.214 9.35324C53.214 9.35324 51.5728 8.45357 46.6253 10.187C40.4409 12.3537 29.5176 13.7742 31.7379 24.4548C33.9582 35.1355 44.6662 46.4444 53.5571 43.6024C62.448 40.7604 61.654 28.791 60.6331 18.4572Z" fill="#BF4941" stroke="#E16E66"/>
<path d="M154.667 190.069C154.23 194.878 155.344 196.476 160.243 200.405C160.243 200.405 161.685 201.597 166.871 200.825C173.352 199.859 184.348 200.517 184.174 189.609C184.001 178.702 175.609 165.582 166.343 166.702C157.076 167.822 155.606 179.728 154.667 190.069Z" fill="#BF4941" stroke="#E16E66"/>
<path d="M113.844 108.809C115.231 113.434 116.861 114.501 122.871 116.321C122.871 116.321 124.654 116.889 129.178 114.239C134.832 110.926 145.28 107.437 141.052 97.3805C136.824 87.324 124.146 78.279 115.965 82.7736C107.784 87.2682 110.859 98.8631 113.844 108.809Z" fill="#BBBF41" stroke="#E2E67F"/>
<path d="M53.8621 216.893C58.5331 218.117 60.293 217.281 64.9759 213.097C64.9759 213.097 66.3895 211.871 66.4821 206.629C66.5978 200.077 69.059 189.34 58.2719 187.713C47.4849 186.086 33.1613 192.201 32.7389 201.526C32.3166 210.85 43.8169 214.262 53.8621 216.893Z" fill="#BBBF41" stroke="#E2E67F"/>
<path d="M184.75 33.2029C189.303 34.8096 191.126 34.1225 196.14 30.3419C196.14 30.3419 197.651 29.2368 198.178 24.0209C198.836 17.5011 202.18 7.00555 191.565 4.48948C180.95 1.97341 166.168 6.87865 164.974 16.136C163.78 25.3934 174.957 29.7475 184.75 33.2029Z" fill="#BBBF41" stroke="#E2E67F"/>
<path fill-rule="evenodd" clip-rule="evenodd" d="M199.669 349.959L172.237 357.424C170.801 348.883 170.686 340.42 177.664 337.328C185.072 334.047 194.987 341.219 199.669 349.959Z" fill="#BF4941"/>
<path d="M199.669 349.959L199.8 350.442L200.406 350.277L200.11 349.723L199.669 349.959ZM172.237 357.424L171.744 357.507L171.835 358.051L172.368 357.906L172.237 357.424ZM177.664 337.328L177.462 336.871L177.664 337.328ZM199.538 349.477L172.106 356.941L172.368 357.906L199.8 350.442L199.538 349.477ZM177.462 336.871C173.782 338.501 171.989 341.557 171.304 345.241C170.623 348.902 171.024 353.225 171.744 357.507L172.73 357.341C172.014 353.082 171.639 348.903 172.287 345.424C172.929 341.969 174.567 339.247 177.867 337.786L177.462 336.871ZM200.11 349.723C197.731 345.282 194.023 341.236 189.953 338.711C185.892 336.191 181.379 335.136 177.462 336.871L177.867 337.786C181.358 336.239 185.507 337.129 189.425 339.561C193.335 341.986 196.926 345.897 199.228 350.195L200.11 349.723Z" fill="#E16E66"/>
<path fill-rule="evenodd" clip-rule="evenodd" d="M93.2077 355.69L70.3336 351.64C72.2507 344.828 75.1167 338.534 81.3515 338.683C87.9703 338.841 92.7958 347.599 93.2077 355.69Z" fill="#BBBF41"/>
<path d="M93.2077 355.69L93.1205 356.182L93.739 356.292L93.707 355.664L93.2077 355.69ZM70.3336 351.64L69.8523 351.504L69.7027 352.036L70.2464 352.132L70.3336 351.64ZM81.3515 338.683L81.3635 338.183L81.3515 338.683ZM93.2948 355.197L70.4207 351.148L70.2464 352.132L93.1205 356.182L93.2948 355.197ZM81.3635 338.183C78.0382 338.104 75.6216 339.758 73.8179 342.259C72.0286 344.74 70.814 348.087 69.8523 351.504L70.8149 351.775C71.7703 348.381 72.9473 345.175 74.629 342.844C76.2962 340.532 78.43 339.113 81.3396 339.183L81.3635 338.183ZM93.707 355.664C93.497 351.538 92.1633 347.24 90.0269 343.94C87.8963 340.649 84.9058 338.268 81.3635 338.183L81.3396 339.183C84.416 339.256 87.1477 341.333 89.1875 344.483C91.2215 347.625 92.5065 351.751 92.7083 355.715L93.707 355.664Z" fill="#E2E67F"/>
</svg>
