<svg width="238" height="401" viewBox="0 0 238 401" fill="none" xmlns="http://www.w3.org/2000/svg">
<path d="M43.6084 139.853C39.0366 141.407 38.0289 143.074 36.4275 149.146C36.4275 149.146 35.9241 150.949 38.736 155.373C42.2508 160.904 46.1151 171.219 56.0124 166.631C65.9096 162.042 74.4908 149.046 69.7036 141.033C64.9164 133.02 53.4402 136.512 43.6084 139.853Z" fill="#4187BF" stroke="#85D7FB"/>
<path d="M148.502 274.107C148.457 269.278 147.189 267.799 141.924 264.378C141.924 264.378 140.369 263.335 135.287 264.621C128.934 266.228 117.928 266.67 119.187 277.506C120.447 288.342 130.105 300.56 139.214 298.521C148.322 296.483 148.598 284.49 148.502 274.107Z" fill="#4187BF" stroke="#85D7FB"/>
<path d="M53.5485 327.765C56.1238 324.619 56.1013 322.979 54.5419 317.926C54.5419 317.926 54.099 316.414 50.1192 314.504C45.1445 312.117 37.7894 306.466 32.7596 314.152C27.7298 321.839 27.385 334.948 34.3744 338.543C41.3638 342.137 48.0102 334.531 53.5485 327.765Z" fill="#4187BF" stroke="#85D7FB"/>
<path d="M82.633 44.4572C82.1583 39.652 80.7632 38.2919 75.2139 35.3532C75.2139 35.3532 73.5727 34.4536 68.6252 36.187C62.4408 38.3537 51.5175 39.7742 53.7378 50.4548C55.9581 61.1355 66.6661 72.4444 75.5571 69.6024C84.448 66.7604 83.654 54.791 82.633 44.4572Z" fill="#BF4941" stroke="#E16E66"/>
<path d="M176.667 216.069C176.23 220.878 177.344 222.476 182.243 226.405C182.243 226.405 183.685 227.597 188.87 226.825C195.352 225.859 206.347 226.517 206.174 215.609C206.001 204.702 197.609 191.582 188.343 192.702C179.076 193.822 177.606 205.728 176.667 216.069Z" fill="#BF4941" stroke="#E16E66"/>
<path d="M135.844 134.809C137.231 139.434 138.861 140.501 144.871 142.321C144.871 142.321 146.654 142.889 151.178 140.239C156.832 136.926 167.28 133.437 163.052 123.38C158.824 113.324 146.146 104.279 137.965 108.774C129.784 113.268 132.859 124.863 135.844 134.809Z" fill="#BBBF41" stroke="#E2E67F"/>
<path d="M75.8621 242.893C80.5331 244.117 82.293 243.281 86.9759 239.097C86.9759 239.097 88.3895 237.871 88.4821 232.629C88.5978 226.077 91.059 215.34 80.2719 213.713C69.4849 212.087 55.1613 218.201 54.7389 227.526C54.3166 236.85 65.8169 240.262 75.8621 242.893Z" fill="#BBBF41" stroke="#E2E67F"/>
<path d="M206.75 59.2029C211.303 60.8096 213.126 60.1225 218.14 56.3419C218.14 56.3419 219.651 55.2368 220.178 50.0209C220.836 43.5011 224.18 33.0056 213.565 30.4895C202.95 27.9734 188.168 32.8786 186.974 42.136C185.78 51.3934 196.957 55.7475 206.75 59.2029Z" fill="#BBBF41" stroke="#E2E67F"/>
<path fill-rule="evenodd" clip-rule="evenodd" d="M221.669 375.959L194.237 383.424C192.801 374.883 192.686 366.42 199.664 363.328C207.072 360.047 216.987 367.219 221.669 375.959Z" fill="#BF4941"/>
<path d="M221.669 375.959L221.8 376.442L222.406 376.277L222.11 375.723L221.669 375.959ZM194.237 383.424L193.744 383.507L193.835 384.051L194.368 383.906L194.237 383.424ZM199.664 363.328L199.462 362.871L199.462 362.871L199.664 363.328ZM221.538 375.477L194.105 382.941L194.368 383.906L221.8 376.442L221.538 375.477ZM199.462 362.871C195.782 364.501 193.989 367.557 193.303 371.241C192.623 374.902 193.024 379.225 193.744 383.507L194.73 383.341C194.014 379.082 193.639 374.903 194.287 371.424C194.929 367.969 196.567 365.247 199.867 363.786L199.462 362.871ZM222.11 375.723C219.731 371.282 216.023 367.236 211.953 364.711C207.892 362.191 203.379 361.136 199.462 362.871L199.867 363.786C203.358 362.239 207.506 363.129 211.425 365.561C215.335 367.986 218.926 371.897 221.228 376.195L222.11 375.723Z" fill="#E16E66"/>
<path fill-rule="evenodd" clip-rule="evenodd" d="M115.208 381.69L92.3335 377.64C94.2506 370.828 97.1167 364.534 103.352 364.683C109.97 364.841 114.796 373.599 115.208 381.69Z" fill="#BBBF41"/>
<path d="M115.208 381.69L115.12 382.182L115.739 382.292L115.707 381.664L115.208 381.69ZM92.3335 377.64L91.8522 377.504L91.7026 378.036L92.2464 378.132L92.3335 377.64ZM103.352 364.683L103.363 364.183L103.363 364.183L103.352 364.683ZM115.295 381.197L92.4207 377.148L92.2464 378.132L115.12 382.182L115.295 381.197ZM103.363 364.183C100.038 364.104 97.6216 365.758 95.8178 368.259C94.0285 370.74 92.8139 374.087 91.8522 377.504L92.8148 377.775C93.7702 374.381 94.9472 371.175 96.6289 368.844C98.2962 366.532 100.43 365.113 103.34 365.183L103.363 364.183ZM115.707 381.664C115.497 377.538 114.163 373.24 112.027 369.94C109.896 366.649 106.906 364.268 103.363 364.183L103.34 365.183C106.416 365.256 109.148 367.333 111.187 370.483C113.221 373.625 114.506 377.751 114.708 381.715L115.707 381.664Z" fill="#E2E67F"/>
</svg>
